<?xml version="1.0" encoding="utf-8"?>
<!-- Generator: Adobe Illustrator 21.0.2, SVG Export Plug-In . SVG Version: 6.00 Build 0)  -->
<svg version="1.1" id="Layer_1" xmlns="http://www.w3.org/2000/svg" xmlns:xlink="http://www.w3.org/1999/xlink" x="0px" y="0px"
	 viewBox="0 0 140 140" style="enable-background:new 0 0 140 140;" xml:space="preserve">
<style type="text/css">
	.st0{fill:#FFFFFF;}
</style>
<title>icon-dental</title>
<desc>Created with Sketch.</desc>
<g id="Page-1">
	<g id="Employer-Cross-Sell---Desktop" transform="translate(-634.000000, -1292.000000)">
		<g id="Benefits-Section" transform="translate(0.000000, 1203.000000)">
			<g id="icon-dental-in-circle" transform="translate(590.000000, 54.000000)">
				<g id="icon-dental">
					<path class="st0" d="M139.8,89.5c0-6.5-1.5-12.2-3.6-15.4c-1.7-3-4.9-3.5-4.9-3.5c-6.9-1.6-13.3,1-15,1.6
						c-0.7,0.3-1.4,0.3-2.1,0.3c-0.2,0-0.8,0-1,0c-0.6,0-1.3-0.1-2.1-0.3c-1.7-0.6-10.2-3.2-15-1.6c0,0-3.8,0.6-5.3,4.4
						C89.1,78.3,88,83.3,88,89c0,6.7,2.4,11.2,3.8,15.7c1.6,7.5,3.6,32.8,9.5,34.4c10.2,2.8,0.1-36.4,12.4-34.6
						c13,2.2,3.7,37.6,14,34.7c5.9-1.6,7-18.1,7.7-32.7C135.4,102.1,139.8,95.9,139.8,89.5"/>
				</g>
			</g>
		</g>
	</g>
</g>
</svg>
